<?xml version="1.0" standalone="no"?>
<!DOCTYPE svg PUBLIC "-//W3C//DTD SVG 20010904//EN"
 "http://www.w3.org/TR/2001/REC-SVG-20010904/DTD/svg10.dtd">
<svg version="1.0" xmlns="http://www.w3.org/2000/svg"
 width="1080.000000pt" height="1080.000000pt" viewBox="0 0 1080.000000 1080.000000"
 preserveAspectRatio="xMidYMid meet">
<metadata>
Created by potrace 1.14, written by Peter Selinger 2001-2017
</metadata>
<g transform="translate(0.000000,1080.000000) scale(0.100000,-0.100000)"
fill="#000000" stroke="none">
<path d="M314 10763 c3 -21 8 -281 11 -578 3 -297 10 -718 15 -935 6 -217 15
-730 20 -1140 6 -410 15 -1042 20 -1405 16 -1103 29 -3723 30 -5987 l0 -718
131 0 131 0 -6 2223 c-6 2421 -15 4118 -21 4377 -5 213 -14 1812 -9 1740 2
-30 8 -298 14 -595 5 -297 12 -643 15 -770 22 -1054 30 -2303 29 -4652 l-1
-2323 38 0 39 0 1 953 c1 523 2 1265 2 1647 1 734 -10 2509 -18 3015 -6 367
-13 860 -20 1390 -3 220 -8 456 -10 525 -2 69 -5 208 -5 310 -1 176 -7 441
-30 1325 -5 215 -12 550 -15 745 -3 195 -8 416 -10 490 -3 74 -5 195 -5 268
l0 132 -176 0 -176 0 6 -37z m216 -2668 c0 -14 -4 -25 -9 -25 -4 0 -6 11 -3
25 2 14 6 25 8 25 2 0 4 -11 4 -25z m41 -575 c18 0 9 -16 -10 -17 -11 -1 -22
5 -25 14 -5 11 -2 14 10 9 8 -3 20 -6 25 -6z m10 -53 c-1 -4 -2 -31 -2 -59 -1
-29 -4 -43 -6 -30 -2 12 -9 20 -14 17 -5 -4 -9 1 -9 9 0 8 5 18 10 21 6 3 7
18 4 32 -5 18 -3 24 5 22 7 -3 12 -8 12 -12z m-5 -152 c-8 -23 -36 -18 -36 6
0 15 5 19 15 15 8 -3 15 0 16 7 0 9 2 9 6 -1 3 -7 2 -19 -1 -27z m-6 -85 c0
-48 -1 -50 -20 -38 -24 15 -26 46 -5 54 8 4 15 12 15 20 0 8 2 14 5 14 3 0 5
-23 5 -50z m-7 -169 c-4 -17 -33 -39 -33 -26 0 5 33 45 36 45 1 0 0 -9 -3 -19z
m-6 -363 c-3 -8 -6 -5 -6 6 -1 11 2 17 5 13 3 -3 4 -12 1 -19z m0 -125 c-2
-16 -4 -5 -4 22 0 28 2 40 4 28 2 -13 2 -35 0 -50z m13 -87 c0 -3 -4 -8 -10
-11 -5 -3 -10 -1 -10 4 0 6 5 11 10 11 6 0 10 -2 10 -4z m-6 -170 c-3 -14 -10
-26 -15 -26 -12 0 -11 17 1 25 6 4 8 16 4 28 -5 17 -3 19 5 11 7 -7 9 -22 5
-38z m3 -193 c-3 -10 -5 -4 -5 12 0 17 2 24 5 18 2 -7 2 -21 0 -30z m-7 -983
c0 -5 -4 -10 -10 -10 -5 0 -10 5 -10 10 0 6 5 10 10 10 6 0 10 -4 10 -10z"/>
<path d="M850 10668 c0 -73 5 -304 10 -513 92 -3652 104 -4520 105 -7618 l0
-2537 150 2 150 3 1 40 c3 92 3 189 0 350 -1 94 -3 242 -5 330 -2 142 -2 478
-1 1515 0 168 1 312 1 320 1 21 -11 1821 -16 2495 -2 308 -6 868 -9 1245 -3
377 -8 870 -11 1095 -8 593 -18 1596 -19 1912 -1 150 -3 273 -6 273 -3 0 -6
116 -6 258 -1 141 -3 416 -4 610 l-2 352 -169 0 -169 0 0 -132z m259 -4130 c0
-31 -1 -31 -10 -10 -5 13 -7 28 -3 33 10 16 14 9 13 -23z m3 -110 c-9 -9 -12
-7 -12 12 0 19 3 21 12 12 9 -9 9 -15 0 -24z m9 -953 c-9 -30 -9 -30 -8 8 0
21 4 34 8 30 5 -5 5 -22 0 -38z m-4 -67 c-3 -8 -6 -5 -6 6 -1 11 2 17 5 13 3
-3 4 -12 1 -19z m5 -85 c-9 -14 -10 -14 -16 5 -9 29 3 51 16 28 5 -10 5 -23 0
-33z m-5 -55 c-3 -8 -6 -5 -6 6 -1 11 2 17 5 13 3 -3 4 -12 1 -19z m5 -113 c2
-19 0 -35 -4 -35 -4 0 -8 16 -8 35 0 19 2 35 4 35 2 0 6 -16 8 -35z m1 -116
c-5 -5 -7 7 -4 29 5 34 6 35 9 8 2 -16 0 -32 -5 -37z m4 -41 c-3 -8 -6 -5 -6
6 -1 11 2 17 5 13 3 -3 4 -12 1 -19z m-10 -110 c-3 -8 -6 -5 -6 6 -1 11 2 17
5 13 3 -3 4 -12 1 -19z"/>
<path d="M1313 10373 c4 -236 12 -639 17 -898 5 -258 12 -663 15 -900 2 -236
7 -536 10 -665 3 -129 8 -590 11 -1025 3 -434 7 -920 9 -1080 3 -219 17 -5664
15 -5782 0 -20 5 -23 41 -23 l41 0 -7 33 c-6 28 -19 450 -16 517 5 97 4 1214
-2 1940 -5 481 -10 1188 -12 1570 -3 382 -7 947 -10 1255 -3 308 -8 1051 -10
1650 -7 1483 -13 2144 -20 2156 -4 5 -9 341 -11 747 -3 405 -9 773 -14 817 -5
48 -5 84 1 90 17 17 9 25 -28 25 l-36 0 6 -427z"/>
<path d="M1520 10703 c0 -54 5 -347 10 -650 17 -924 29 -1868 40 -2918 5 -550
12 -1220 15 -1490 7 -768 22 -3891 25 -5537 l0 -108 175 0 c149 0 177 2 182
15 3 9 -2 21 -12 29 -16 12 -16 13 0 30 12 11 16 28 13 51 -2 19 0 35 5 35 5
0 6 14 2 30 -6 26 -4 30 15 30 21 0 22 -3 15 -60 -5 -44 -4 -60 5 -60 9 0 9
-4 3 -12 -14 -18 -23 -57 -16 -74 3 -9 20 -14 42 -14 l37 0 -2 332 c-9 1218
-15 2392 -19 3563 -6 1665 -15 3094 -20 3320 -3 94 -5 332 -6 530 0 198 -5
594 -9 880 -10 628 -25 1847 -25 2038 l0 137 -31 0 c-25 0 -33 -5 -38 -24 -3
-14 -1 -36 5 -49 7 -17 8 -31 1 -43 -6 -12 -7 -51 -1 -104 11 -121 11 -240 -1
-240 -5 0 -10 -16 -10 -35 0 -19 5 -35 10 -35 6 0 10 -14 10 -31 0 -20 -4 -28
-11 -23 -9 5 -10 -12 -4 -62 4 -38 11 -72 17 -75 15 -10 6 -261 -9 -267 -17
-5 -17 -22 0 -22 11 0 13 -51 13 -267 0 -148 1 -302 2 -343 1 -41 2 -86 2
-100 -3 -184 12 -793 19 -814 7 -17 7 -26 0 -26 -6 0 -8 -87 -4 -262 3 -145 7
-450 10 -678 3 -228 7 -602 10 -830 3 -228 6 -426 5 -440 0 -14 1 -43 2 -65 1
-22 1 -57 1 -77 0 -21 -1 -75 -1 -120 0 -46 -1 -120 -1 -165 -1 -46 2 -83 6
-83 5 0 7 -19 6 -42 -2 -62 -3 -218 -1 -253 0 -16 1 -93 0 -170 0 -77 0 -149
0 -160 0 -11 1 -74 0 -140 0 -217 4 -375 11 -382 10 -10 8 -51 -2 -55 -9 -3
-14 -97 -11 -198 1 -35 3 -41 10 -25 6 13 7 4 2 -25 -7 -45 -7 -226 -1 -333 2
-31 1 -57 -2 -57 -3 0 -4 -30 -2 -67 11 -189 13 -304 5 -361 -5 -35 -6 -81 -2
-101 4 -21 2 -68 -3 -105 -8 -49 -7 -73 1 -86 7 -11 9 -41 6 -74 -3 -31 0 -64
6 -76 9 -16 8 -20 -5 -20 -14 0 -15 -8 -9 -58 3 -31 11 -59 15 -60 13 -5 11
-32 -2 -32 -9 0 -10 -27 -5 -99 4 -55 3 -102 -2 -105 -13 -8 -6 -330 7 -334
14 -5 15 -32 1 -32 -5 0 -10 -18 -10 -40 0 -22 5 -40 10 -40 6 0 10 -16 10
-36 0 -19 -4 -33 -8 -30 -13 8 -16 -36 -13 -189 1 -43 4 -56 11 -45 11 16 5
-31 -10 -85 -5 -16 -7 -59 -4 -95 3 -36 5 -72 6 -80 0 -8 5 -25 11 -38 8 -18
8 -25 -1 -31 -7 -4 -13 -36 -15 -77 -1 -38 -7 -75 -11 -83 -6 -10 -5 -12 2 -7
13 8 17 -30 6 -58 -6 -16 -34 -23 -34 -8 -6 94 -13 148 -22 153 -6 4 -8 11 -5
16 4 6 9 39 12 73 4 35 8 67 10 71 3 4 -2 12 -10 19 -20 17 -20 51 0 44 8 -4
15 -1 15 5 0 6 -9 11 -20 11 -13 0 -18 5 -13 16 3 8 12 13 19 10 10 -4 14 3
14 20 0 13 -6 27 -13 30 -17 6 -12 134 5 145 9 6 9 22 0 71 -22 124 -25 150
-12 158 13 8 21 148 9 156 -4 2 -10 -2 -12 -8 -3 -7 -6 1 -6 19 -1 17 4 35 9
38 6 3 7 17 4 30 -3 13 0 26 6 30 7 5 8 10 3 14 -14 9 -25 71 -13 71 6 0 5 8
-2 20 -10 15 -10 22 0 32 15 15 16 58 1 58 -7 0 -9 10 -7 25 3 14 2 25 -1 25
-4 0 -5 17 -3 38 2 20 3 47 3 60 -1 13 4 32 9 43 6 10 7 19 3 19 -4 0 -9 72
-10 160 -1 88 1 160 5 160 4 0 6 18 4 40 -2 22 -8 40 -12 40 -5 0 -7 52 -4
115 2 63 0 115 -4 115 -4 0 -6 20 -4 45 2 25 7 45 11 45 3 0 5 28 3 63 -1 34
-4 98 -6 142 -1 44 -7 88 -11 99 -5 11 -4 26 3 36 7 12 9 73 6 187 -17 657
-20 981 -9 1036 4 22 3 37 -2 37 -10 0 -24 979 -16 1105 1 17 0 104 -2 195 -4
163 -6 372 -4 420 1 14 0 123 -1 244 -1 174 1 220 12 227 10 7 10 11 1 17 -9
6 -13 71 -14 249 -1 133 2 246 5 252 4 6 2 11 -4 11 -8 0 -10 15 -6 48 3 26 5
88 4 137 -1 50 -1 104 -1 120 1 17 0 98 0 180 -1 83 -2 194 -2 248 0 53 -4 97
-9 97 -5 0 -5 18 -1 43 5 23 7 152 5 287 -1 135 -2 256 -2 270 1 14 1 39 0 55
-2 85 0 166 7 218 5 36 4 57 -2 57 -6 0 -11 46 -12 113 -3 221 2 404 12 413
13 13 7 44 -8 44 -8 0 -15 7 -15 15 0 8 7 15 15 15 20 0 19 19 -1 41 -11 12
-13 25 -8 41 4 13 7 26 6 31 -1 4 5 7 13 7 19 0 19 11 0 36 -20 26 -19 82 2
102 14 14 14 17 2 20 -12 2 -14 19 -11 93 3 68 1 93 -9 99 -17 11 6 41 27 33
8 -3 14 0 14 6 0 6 -7 11 -16 11 -15 0 -16 9 -10 64 3 36 2 67 -2 70 -5 3 -7
28 -4 56 l5 50 -187 0 -186 0 0 -97z m507 -9145 c-3 -8 -6 -5 -6 6 -1 11 2 17
5 13 3 -3 4 -12 1 -19z m-21 -627 c-13 -64 -14 -94 -7 -114 6 -16 8 -63 5
-110 -6 -99 -6 -91 2 -199 5 -67 4 -88 -6 -88 -9 0 -9 -4 -2 -12 6 -7 10 -24
9 -38 0 -14 1 -29 2 -35 7 -23 0 -95 -9 -95 -15 0 -32 40 -32 75 0 43 11 77
23 70 5 -4 9 -1 9 4 0 6 -9 11 -20 11 -17 0 -19 6 -15 61 2 34 8 66 14 72 13
13 15 47 2 47 -5 0 -6 20 -4 44 3 24 0 53 -7 65 -13 25 -4 44 10 21 6 -8 10
-11 10 -7 0 4 -8 19 -17 34 -16 25 -16 26 6 44 13 11 19 19 13 19 -12 0 -36
56 -34 79 1 9 2 47 2 84 0 43 6 79 16 99 l17 32 15 -38 c13 -34 13 -46 -2
-125z"/>
<path d="M2184 10388 c3 -227 8 -647 11 -933 3 -286 10 -873 15 -1305 5 -432
12 -1093 15 -1470 3 -377 7 -892 10 -1145 3 -253 6 -1432 7 -2620 3 -2507 5
-2915 18 -2915 14 0 4 4156 -15 6720 -7 961 -15 1697 -20 1895 -3 99 -8 522
-11 940 -3 418 -7 787 -8 820 -2 33 -3 142 -4 243 -1 120 -6 182 -13 182 -7 0
-8 -127 -5 -412z"/>
<path d="M2394 10248 c3 -304 11 -933 16 -1398 5 -465 12 -1020 15 -1235 5
-436 13 -1360 20 -2620 3 -462 5 -1775 5 -2917 l0 -2078 53 0 52 0 -4 132 c-7
231 -5 342 8 346 6 2 11 11 11 20 0 13 -2 14 -9 4 -6 -10 -10 -6 -14 15 -3 15
-1 30 4 31 5 2 6 9 2 15 -11 19 -12 421 -1 435 8 9 6 16 -8 27 -18 13 -18 14
-1 15 14 0 16 4 8 19 -7 12 -7 30 -1 51 5 18 6 38 3 44 -10 15 -10 267 -1 272
5 3 5 10 1 16 -9 15 -13 387 -4 392 7 5 6 89 -1 103 -3 4 -6 197 -7 427 -1
231 -5 424 -7 428 -3 4 -1 8 5 8 6 0 8 15 4 38 -6 41 -7 57 -2 116 1 24 -2 41
-9 44 -7 2 -12 19 -12 38 0 26 3 32 15 28 10 -4 15 0 15 15 0 12 -6 21 -15 21
-8 0 -15 5 -15 10 0 6 5 10 10 10 8 0 8 288 0 405 0 6 1 116 2 245 1 129 -1
489 -5 800 -8 700 -7 774 3 809 5 18 3 39 -6 60 -11 26 -12 52 -4 124 6 63 6
95 -1 104 -7 8 -8 22 -2 40 10 30 8 418 -2 540 -4 51 -2 72 6 75 9 3 7 13 -6
35 -17 29 -17 32 -2 48 21 21 21 34 0 57 -9 11 -11 18 -5 18 9 0 11 98 7 383
-3 210 -5 393 -6 407 0 14 -1 57 -1 95 0 39 0 81 0 95 -1 14 0 39 2 55 2 24 3
214 2 330 0 11 -3 55 -7 97 -6 56 -4 82 4 92 7 8 10 20 6 26 -13 20 -16 100
-4 100 8 0 9 21 4 73 -4 39 -6 142 -5 227 1 85 1 220 0 300 -1 80 -3 366 -5
635 -2 270 -6 544 -10 610 -11 197 -10 207 2 224 8 11 8 22 1 34 -5 10 -9 58
-9 105 1 48 -1 107 -5 132 -4 31 -1 54 10 74 12 24 13 33 3 45 -8 9 -11 42 -8
98 l3 83 -53 0 -52 0 7 -552z"/>
<path d="M2570 10710 c0 -53 4 -90 10 -90 17 0 12 -116 -5 -134 -11 -10 -13
-24 -9 -42 5 -19 9 -22 15 -12 5 8 9 -21 10 -72 1 -47 3 -98 5 -115 4 -41 -4
-64 -15 -46 -14 23 -12 -105 3 -141 13 -33 13 -128 1 -160 -4 -10 -4 -26 -1
-35 4 -9 1 -20 -6 -25 -10 -6 -10 -10 1 -17 15 -9 16 -42 5 -105 -4 -23 -3
-36 3 -33 5 3 5 -31 0 -85 -7 -72 -6 -93 5 -100 10 -8 10 -11 1 -15 -7 -2 -13
-11 -13 -18 0 -7 6 -16 13 -18 10 -4 10 -6 0 -6 -16 -1 -18 -81 -2 -81 6 0 10
-23 9 -57 -1 -55 2 -251 15 -828 3 -137 8 -520 10 -850 2 -330 7 -834 10
-1120 3 -286 8 -979 12 -1540 3 -561 6 -1058 6 -1105 1 -47 0 -319 -1 -605 -1
-286 -1 -656 0 -823 2 -166 0 -302 -4 -302 -4 0 -5 -42 -2 -92 7 -133 4 -267
-6 -293 -5 -13 -6 -26 -3 -29 10 -9 13 -590 4 -596 -5 -3 -5 -32 0 -65 9 -68
5 -338 -6 -373 -4 -12 -3 -28 3 -35 7 -8 9 -65 6 -157 -8 -238 -8 -444 0 -467
7 -22 11 -23 153 -23 l145 0 -5 288 c-11 546 -16 1031 -21 2137 -9 1852 -16
2781 -22 2960 -3 94 -7 487 -10 875 -4 631 -12 1621 -17 2177 -1 112 2 203 7
203 5 0 4 6 -1 13 -7 7 -11 256 -12 667 -2 690 -7 1446 -10 1468 -1 9 -36 12
-141 12 l-140 0 0 -90z m17 18 c-3 -7 -5 -2 -5 12 0 14 2 19 5 13 2 -7 2 -19
0 -25z m0 -80 c-3 -8 -6 -5 -6 6 -1 11 2 17 5 13 3 -3 4 -12 1 -19z m70
-10530 c-3 -8 -6 -5 -6 6 -1 11 2 17 5 13 3 -3 4 -12 1 -19z"/>
<path d="M3025 10568 c3 -128 10 -744 15 -1368 6 -624 15 -1556 20 -2070 5
-514 12 -1320 15 -1790 3 -470 8 -1114 10 -1430 2 -316 5 -1146 7 -1845 1
-698 4 -1449 6 -1667 l4 -398 35 0 34 0 -6 398 c-3 218 -8 744 -10 1167 -2
424 -7 975 -10 1225 -3 250 -7 745 -10 1100 -3 355 -7 731 -10 835 -4 176 -9
622 -20 1895 -4 477 -8 787 -21 1640 -7 500 -12 887 -18 1615 -7 756 -13 925
-33 925 -12 0 -13 -36 -8 -232z"/>
<path d="M3255 10638 c3 -90 10 -563 15 -1053 5 -489 12 -1023 15 -1185 14
-841 34 -2600 40 -3480 3 -465 7 -1000 10 -1190 3 -190 8 -691 11 -1115 3
-423 8 -772 10 -774 4 -4 6 1496 4 2674 -2 1300 -1 1605 5 1615 3 5 3 19 0 30
-4 12 -7 358 -8 770 -1 413 -4 750 -8 750 -4 0 -5 71 -3 158 9 370 7 555 -6
547 -5 -3 -10 -1 -10 4 0 6 5 11 10 11 6 0 10 14 10 30 0 17 -4 30 -10 30 -5
0 -10 7 -10 15 0 9 6 12 15 9 13 -5 13 -1 1 34 -8 22 -12 43 -9 46 3 3 5 74 3
158 -1 84 -2 162 -1 173 1 112 1 138 -5 146 -3 5 -5 62 -4 127 7 529 6 869 -2
886 -7 12 -7 21 0 25 7 4 9 62 6 161 -3 85 -6 223 -8 305 -2 83 -4 174 -5 203
l-1 52 -35 0 -34 0 4 -162z"/>
<path d="M3495 10568 c3 -128 9 -584 15 -1013 5 -429 12 -933 15 -1120 2 -187
7 -718 10 -1180 3 -462 8 -1083 10 -1380 3 -297 6 -1740 6 -3207 0 -2336 2
-2668 14 -2668 12 0 15 23 15 136 0 87 4 133 10 129 13 -8 13 30 0 73 -10 38
-13 984 -11 5147 0 2680 -2 3364 -14 3930 -2 127 -7 417 -10 645 -3 228 -8
488 -11 578 l-6 162 -24 0 -24 0 5 -232z"/>
<path d="M3724 10573 c3 -126 11 -619 16 -1098 5 -478 12 -1039 15 -1245 3
-206 5 -2142 5 -4302 l0 -3928 49 0 49 0 6 73 c4 39 4 135 1 212 -3 77 -6 237
-6 355 0 179 -3 218 -16 232 -8 9 -13 23 -10 30 4 8 6 7 6 -4 1 -10 6 -18 12
-18 7 0 9 10 4 28 -4 15 -6 70 -4 122 1 52 2 106 1 120 -2 27 -14 554 -15 630
0 25 1 77 2 115 1 39 2 97 1 130 -1 33 2 77 6 97 5 31 4 38 -10 38 -9 0 -16 7
-16 16 0 8 5 12 10 9 6 -3 10 -1 10 4 0 6 -5 11 -10 11 -7 0 -7 6 -2 18 5 9 9
46 8 82 -1 36 1 70 5 75 9 14 -1 76 -12 69 -5 -3 -9 11 -9 31 0 22 4 34 10 30
6 -3 11 4 11 17 3 52 -4 144 -11 164 -6 13 -3 39 5 67 7 25 11 47 9 50 -8 7
-7 373 1 396 3 11 -1 25 -10 34 -11 12 -15 38 -15 101 0 47 4 86 9 86 5 0 7
21 4 48 -2 26 -6 206 -8 401 -4 277 -2 357 7 363 10 6 10 8 0 8 -11 0 -13 40
-12 203 4 606 0 1077 -10 1077 -11 0 -10 85 4 308 3 57 2 92 -4 92 -14 0 -12
104 2 118 8 8 8 15 1 24 -7 8 -9 44 -7 91 3 42 1 77 -3 77 -7 0 -10 112 -4
130 8 23 9 200 1 200 -6 0 -10 10 -10 23 0 15 3 18 9 9 5 -9 10 3 15 34 9 69
7 134 -4 134 -5 0 -10 5 -10 11 0 5 5 7 10 4 7 -5 9 28 6 102 -3 59 -5 115 -6
123 0 12 -2 12 -9 2 -5 -8 -8 4 -9 32 0 48 13 63 21 24 3 -15 5 -9 6 14 1 37
-13 59 -23 36 -3 -7 -3 5 1 27 3 22 10 48 15 58 5 11 5 17 -2 17 -6 0 -9 32
-6 91 2 50 0 104 -4 119 -6 21 -4 32 7 41 9 8 12 20 7 33 -7 20 -15 161 -14
251 2 231 -2 360 -11 366 -6 3 -5 10 3 17 18 14 18 254 0 260 -7 2 -12 11 -12
20 0 14 2 15 10 2 5 -8 12 -11 16 -7 4 4 0 15 -9 25 -19 21 -23 57 -6 46 7 -4
7 2 -1 17 -10 19 -10 24 3 34 14 10 15 37 12 201 -2 104 -4 222 -5 262 0 46
-4 71 -10 67 -5 -3 -10 -2 -10 3 0 6 7 12 15 16 16 6 10 34 -9 49 -7 6 -5 7 5
4 15 -5 16 6 14 91 -2 53 -4 144 -4 201 -1 94 -3 103 -18 97 -16 -5 -15 -4 1
9 15 12 17 17 7 29 -9 11 -10 29 -4 63 5 26 8 83 8 126 0 42 3 77 7 77 11 0
10 37 -1 44 -7 5 -8 370 0 676 1 63 2 148 1 188 l-2 72 -41 0 -42 0 7 -227z
m66 111 c0 -8 -4 -12 -10 -9 -5 3 -10 10 -10 16 0 5 5 9 10 9 6 0 10 -7 10
-16z m-17 -477 c3 -8 1 -20 -4 -28 -6 -10 -9 -7 -9 14 0 29 5 35 13 14z m14
-779 c-3 -7 -5 -2 -5 12 0 14 2 19 5 13 2 -7 2 -19 0 -25z m0 -50 c-3 -7 -5
-2 -5 12 0 14 2 19 5 13 2 -7 2 -19 0 -25z m0 -490 c-3 -8 -6 -5 -6 6 -1 11 2
17 5 13 3 -3 4 -12 1 -19z m0 -60 c-3 -7 -5 -2 -5 12 0 14 2 19 5 13 2 -7 2
-19 0 -25z m20 -2170 c-2 -13 -4 -3 -4 22 0 25 2 35 4 23 2 -13 2 -33 0 -45z"/>
<path d="M3934 10688 c3 -62 8 -349 11 -638 3 -289 7 -739 10 -1000 9 -848 19
-2412 30 -4715 3 -600 8 -1319 10 -1600 3 -280 5 -1003 6 -1605 1 -602 4
-1102 7 -1112 2 -11 14 -18 28 -18 l23 0 -4 908 c-2 499 -7 1062 -10 1252 -5
283 -6 483 -5 590 0 8 -2 163 -3 345 -2 188 0 321 5 310 5 -14 6 -9 2 15 -3
19 -7 683 -9 1475 -4 1362 -5 1951 -6 1985 0 8 -2 337 -4 730 -3 707 -10 1452
-21 2365 -3 259 -6 517 -6 575 0 58 -2 138 -5 178 l-5 72 -30 0 -30 0 6 -112z"/>
<path d="M4155 10298 c4 -277 8 -537 10 -578 2 -41 6 -401 10 -800 3 -399 8
-738 10 -755 2 -16 7 -1018 10 -2225 3 -1207 7 -2859 10 -3670 3 -811 5 -1654
5 -1872 0 -391 0 -398 20 -398 18 0 20 7 20 78 2 1045 2 1562 -4 2697 -3 748
-8 1940 -11 2649 -3 708 -7 1291 -9 1295 -2 3 -7 474 -10 1046 -6 1098 -15
2196 -20 2580 -2 127 -4 281 -5 343 -1 107 -2 112 -22 112 l-21 0 7 -502z"/>
<path d="M4354 10748 c3 -29 8 -388 11 -798 3 -410 8 -817 10 -905 3 -88 10
-713 15 -1390 24 -3117 31 -4492 31 -6212 l-1 -1443 44 0 c33 0 45 4 47 18 3
9 3 98 1 197 -1 99 -2 198 -1 220 1 22 1 85 1 140 -1 55 -1 116 -1 135 0 19 0
62 -1 95 0 33 0 170 1 305 1 309 2 525 1 570 0 19 0 69 0 110 0 63 -1 219 -2
295 0 11 -3 346 -5 745 -6 728 -13 1569 -16 1625 0 17 -1 71 0 120 0 50 -2
171 -4 270 -16 644 -21 1013 -12 1021 3 3 1 18 -4 33 -12 29 -16 1112 -5 1130
4 6 2 11 -4 11 -7 0 -10 24 -9 68 5 151 -16 1016 -25 1030 -3 5 -4 154 -2 333
1 178 -2 339 -7 357 -5 22 -5 38 3 47 6 7 10 59 10 131 -1 66 -1 133 0 149 1
28 2 96 2 120 0 6 -3 330 -5 720 -3 391 -6 731 -6 758 l-1 47 -36 0 -35 0 5
-52z"/>
<path d="M4565 10468 c3 -183 10 -810 15 -1393 5 -583 12 -1098 14 -1145 3
-47 7 -323 11 -615 3 -291 7 -620 10 -730 5 -205 21 -1399 30 -2265 3 -267 5
-1348 5 -2402 l0 -1918 124 0 123 0 -3 508 c-2 279 -6 1126 -9 1882 -3 756 -8
1690 -10 2075 -2 385 -7 1242 -10 1905 -7 1662 -16 3176 -20 3415 -2 110 -4
383 -4 608 l-1 407 -141 0 -140 0 6 -332z m185 -1174 c0 -8 -4 -12 -10 -9 -5
3 -10 13 -10 21 0 8 5 12 10 9 6 -3 10 -13 10 -21z m-3 -716 c-2 -13 -4 -3 -4
22 0 25 2 35 4 23 2 -13 2 -33 0 -45z m13 -154 c0 -8 -4 -12 -10 -9 -5 3 -10
10 -10 16 0 5 5 9 10 9 6 0 10 -7 10 -16z m10 -67 c0 -9 -6 -26 -12 -38 -11
-17 -10 -22 5 -34 16 -11 17 -25 12 -134 -4 -76 -2 -128 5 -140 7 -14 7 -22 0
-26 -7 -4 -8 -11 -2 -18 9 -11 8 -277 -1 -399 -2 -27 0 -48 5 -48 12 0 10 -64
-3 -77 -8 -8 -6 -18 6 -37 14 -21 16 -40 11 -108 -4 -46 -9 -91 -12 -100 -3
-10 -1 -18 5 -18 13 0 15 -37 2 -42 -5 -1 -12 -19 -16 -39 -5 -26 -2 -40 9
-52 21 -21 22 -87 1 -87 -20 0 -20 -46 0 -54 11 -4 14 -19 12 -56 -1 -27 -5
-50 -9 -50 -5 0 -8 5 -8 11 0 5 -5 7 -12 3 -9 -6 -9 -9 0 -12 7 -2 12 -10 12
-18 0 -8 5 -14 10 -14 6 0 10 -9 10 -20 0 -11 -4 -20 -9 -20 -6 0 -3 -16 5
-35 17 -42 19 -89 3 -79 -9 5 -10 -1 -5 -21 5 -18 3 -31 -5 -36 -10 -6 -9 -17
4 -51 23 -59 23 -108 0 -108 -15 -1 -13 -5 10 -25 28 -25 35 -51 15 -57 -10
-4 -13 -166 -6 -395 0 -13 4 -23 9 -23 5 0 9 -12 9 -27 0 -23 -2 -25 -11 -13
-8 11 -9 6 -5 -20 16 -94 19 -163 7 -156 -14 9 -15 -67 -1 -95 7 -13 7 -19 0
-19 -5 0 -10 -11 -10 -25 0 -15 6 -25 15 -25 13 0 14 -29 0 -75 -1 -6 1 -31 5
-57 3 -26 3 -45 -2 -42 -4 3 -8 14 -8 25 0 10 -4 19 -9 19 -13 0 -21 -83 -9
-97 6 -8 8 -36 5 -70 -4 -42 -4 -49 2 -25 5 18 12 36 16 40 10 9 -5 -101 -15
-111 -11 -12 -1 -45 16 -51 14 -6 20 -27 7 -25 -22 4 -28 -4 -30 -39 -1 -32 0
-33 7 -12 8 24 8 23 9 -7 1 -18 6 -33 11 -33 12 0 13 -45 1 -68 -15 -28 -17
-77 -3 -75 15 4 16 -9 1 -24 -8 -8 -8 -17 0 -31 6 -11 11 -27 10 -34 0 -7 -4
-4 -9 7 -5 12 -8 -34 -8 -120 0 -82 3 -128 8 -110 4 19 6 2 4 -43 -4 -80 -11
-102 -26 -81 -6 9 -7 2 -2 -21 9 -41 9 -111 -1 -160 -5 -26 -4 -31 4 -20 9 13
11 13 11 -2 0 -10 -4 -18 -10 -18 -5 0 -10 -14 -10 -31 0 -16 4 -28 9 -25 15
10 20 -34 5 -48 -8 -8 -15 -25 -15 -38 -1 -19 -3 -18 -9 7 -4 17 -5 52 -2 78
4 35 1 51 -9 58 -9 6 -11 11 -3 17 13 9 14 55 1 63 -7 5 -22 433 -19 534 3
100 1 568 -4 905 -6 437 -10 1146 -6 1315 1 55 -2 179 -7 275 -11 216 -11 193
-8 662 1 214 6 388 10 388 5 0 5 5 2 10 -4 6 -3 24 0 42 5 22 9 27 16 17 5 -8
9 -22 9 -32z m47 -1289 c-3 -8 -6 -5 -6 6 -1 11 2 17 5 13 3 -3 4 -12 1 -19z
m10 -1025 c-3 -10 -5 -4 -5 12 0 17 2 24 5 18 2 -7 2 -21 0 -30z m10 -1045
c-3 -8 -6 -5 -6 6 -1 11 2 17 5 13 3 -3 4 -12 1 -19z m0 -320 c-3 -8 -6 -5 -6
6 -1 11 2 17 5 13 3 -3 4 -12 1 -19z m0 -490 c-3 -7 -5 -2 -5 12 0 14 2 19 5
13 2 -7 2 -19 0 -25z m0 -160 c-3 -7 -5 -2 -5 12 0 14 2 19 5 13 2 -7 2 -19 0
-25z m-20 -142 c-7 -15 -11 -16 -18 -5 -5 8 -9 10 -10 4 0 -5 -4 1 -8 15 -6
18 -3 30 11 43 10 10 18 23 18 30 0 7 -5 4 -11 -7 -9 -14 -13 -16 -20 -5 -5 8
0 20 14 34 l22 20 6 -55 c3 -30 1 -63 -4 -74z m30 -8 c-3 -7 -5 -2 -5 12 0 14
2 19 5 13 2 -7 2 -19 0 -25z m-12 -38 c3 -6 -1 -7 -9 -4 -18 7 -21 -7 -5 -23
15 -15 -10 -53 -36 -52 -18 0 -18 1 3 9 22 9 31 40 12 40 -14 0 -12 27 3 33
19 8 25 8 32 -3z m-13 -137 c2 -40 -2 -75 -11 -90 -6 -11 -10 -11 -26 0 -17
13 -17 16 -2 37 8 12 13 29 10 36 -7 18 3 44 17 44 5 0 11 -12 12 -27z m19
-158 c5 4 9 -1 9 -9 0 -9 -4 -16 -10 -16 -5 0 -11 -19 -12 -42 l-1 -43 -7 45
-7 45 -1 -58 c-1 -37 2 -56 8 -52 6 3 10 1 10 -4 0 -6 -4 -11 -10 -11 -14 0
-13 -43 2 -58 9 -9 8 -12 -5 -12 -11 0 -17 8 -17 23 0 13 -5 28 -11 34 -8 8
-8 17 0 32 8 14 8 21 1 21 -6 0 -10 26 -10 63 0 34 4 58 8 52 16 -22 32 -14
34 18 l1 32 4 -33 c2 -18 9 -30 14 -27z m-11 -244 c-12 -8 -14 -26 -10 -99 3
-50 2 -88 -2 -85 -5 2 -8 -3 -8 -12 0 -9 5 -13 10 -10 6 3 10 -1 10 -9 0 -9
-4 -15 -9 -13 -5 1 -10 -2 -11 -8 0 -5 9 -13 22 -17 13 -3 17 -6 11 -7 -8 -1
-13 -15 -13 -34 0 -23 -5 -34 -15 -34 -9 0 -15 10 -15 23 0 13 -5 26 -11 30
-8 5 -8 8 0 13 7 5 8 17 2 39 -10 32 -5 72 9 72 4 0 7 18 7 40 0 22 -4 37 -8
34 -5 -3 -9 4 -9 16 0 13 4 19 11 14 8 -4 9 3 4 25 -6 28 -4 31 17 31 18 -1
20 -3 8 -9z m-10 -380 c0 -22 4 -41 10 -43 5 -2 7 -19 3 -41 -4 -26 -9 -34
-14 -25 -6 9 -9 4 -9 -15 0 -19 4 -26 12 -21 8 5 10 -19 5 -96 -4 -56 -8 -105
-11 -107 -2 -3 -14 1 -26 7 -21 11 -22 15 -15 158 3 81 10 151 15 157 6 7 5
16 -2 23 -8 8 -8 15 2 27 21 25 30 17 30 -24z m27 -203 c-3 -8 -6 -5 -6 6 -1
11 2 17 5 13 3 -3 4 -12 1 -19z m-46 -180 c0 -22 1 -22 9 -3 7 16 9 11 9 -20
0 -32 -2 -37 -10 -22 -6 9 -14 15 -20 12 -5 -4 -9 8 -9 24 0 35 20 43 21 9z
m16 -138 c2 -36 5 -70 7 -77 3 -6 -1 -16 -8 -23 -10 -7 -12 -28 -8 -75 4 -56
2 -65 -12 -65 -18 0 -21 11 -6 26 7 7 7 41 0 105 -15 145 -14 181 8 177 14 -3
17 -15 19 -68z m8 -290 c-5 -8 -11 -8 -17 -2 -6 6 -7 16 -3 22 5 8 11 8 17 2
6 -6 7 -16 3 -22z m5 -102 c0 -4 -4 -8 -10 -8 -5 0 -10 -9 -10 -21 0 -11 -4
-18 -9 -15 -4 3 -6 17 -3 31 2 15 0 25 -7 25 -8 0 -8 4 1 14 11 13 15 13 26
-2 6 -8 12 -19 12 -24z m20 -24 c0 -8 -5 -12 -10 -9 -6 4 -8 11 -5 16 9 14 15
11 15 -7z m-53 -216 c-3 -8 -6 -5 -6 6 -1 11 2 17 5 13 3 -3 4 -12 1 -19z m10
-80 c-3 -8 -6 -5 -6 6 -1 11 2 17 5 13 3 -3 4 -12 1 -19z m-7 -264 c0 -25 -4
-43 -8 -40 -7 4 -4 86 4 86 2 0 4 -21 4 -46z"/>
<path d="M4806 2728 c-5 -21 -5 -46 0 -55 6 -15 8 -13 12 10 2 15 2 39 0 55
-4 25 -5 24 -12 -10z"/>
<path d="M5027 10443 c2 -197 7 -767 13 -1268 5 -500 12 -1576 15 -2390 3
-814 7 -1916 10 -2450 3 -533 8 -1727 11 -2653 l7 -1682 121 0 121 0 -2 683
c-10 3852 -21 5947 -38 6967 -7 426 -13 1083 -20 2045 -3 429 -8 853 -11 943
l-6 162 -112 0 -111 0 2 -357z"/>
<path d="M5454 9788 c4 -557 11 -1364 16 -1793 12 -996 29 -4025 34 -6145 3
-905 5 -1691 5 -1747 l1 -103 121 0 122 0 -7 1818 c-4 999 -11 2265 -16 2812
-6 547 -14 1810 -20 2805 -5 996 -13 2160 -16 2588 l-7 777 -120 0 -120 0 7
-1012z m188 -3189 c4 -19 3 -51 -1 -71 -5 -20 -6 -40 -2 -43 3 -4 -5 -5 -19
-3 -22 3 -25 8 -28 52 -3 53 14 109 32 103 6 -2 14 -19 18 -38z m-35 -151 c-3
-8 -6 -5 -6 6 -1 11 2 17 5 13 3 -3 4 -12 1 -19z m27 -446 c-4 -30 -9 -40 -15
-31 -10 17 -12 80 -2 105 12 31 24 -24 17 -74z m-4 -188 c0 -8 -5 -12 -10 -9
-6 4 -8 11 -5 16 9 14 15 11 15 -7z m-3 -556 c-3 -7 -5 -2 -5 12 0 14 2 19 5
13 2 -7 2 -19 0 -25z m3 -84 c0 -14 -4 -22 -10 -19 -5 3 -10 17 -10 31 0 14 4
22 10 19 6 -3 10 -17 10 -31z m-5 -44 c3 -5 -1 -10 -9 -10 -9 0 -16 5 -16 10
0 6 4 10 9 10 6 0 13 -4 16 -10z m19 -107 c-1 -21 -2 -62 -3 -92 -1 -30 -3
-52 -5 -50 -7 7 -16 171 -10 181 11 18 21 -3 18 -39z m-14 -200 c0 -22 -2 -25
-10 -13 -13 20 -13 40 0 40 6 0 10 -12 10 -27z m3 -205 l-11 -43 -1 55 c-1 41
2 51 11 42 8 -8 8 -23 1 -54z m17 -127 c0 -5 -7 -11 -14 -14 -10 -4 -13 -1 -9
9 6 15 23 19 23 5z"/>
<path d="M6085 10633 c3 -93 7 -478 10 -858 3 -379 8 -1018 11 -1420 15 -1723
21 -2854 23 -4460 2 -940 5 -1915 6 -2165 2 -250 4 -742 4 -1092 l1 -638 23 0
c25 0 52 35 40 53 -4 7 -9 163 -10 347 -1 184 -3 337 -4 340 -2 10 2 289 6
480 3 107 5 204 4 215 -2 51 -9 368 -9 430 0 251 -1 455 -3 623 -2 105 0 192
4 192 4 0 4 13 -1 29 -4 15 -8 102 -9 192 -5 484 -10 1337 -10 1359 1 14 2 34
2 45 0 11 -1 144 -1 295 0 151 0 284 0 295 0 11 -3 252 -6 535 -3 283 -6 529
-6 545 0 17 0 237 1 490 1 480 -6 851 -17 879 -3 9 -1 16 5 16 8 0 11 46 10
148 -1 98 -4 137 -10 117 -5 -19 -6 -3 -2 45 7 94 7 81 -2 173 -4 43 -4 77 1
77 5 0 8 62 6 138 -2 75 -3 160 -2 187 2 109 1 311 -3 765 -2 261 -1 484 3
495 4 11 3 69 -1 130 -6 73 -5 111 2 116 7 4 8 21 3 45 -9 47 -9 64 1 87 4 9
4 25 0 35 -13 28 -14 445 -2 460 8 10 7 16 -1 21 -8 5 -11 45 -11 126 1 66 0
138 -1 160 -1 22 3 53 9 68 17 43 14 47 -29 47 l-41 0 6 -167z"/>
<path d="M6296 10342 c1 -251 4 -799 8 -1217 3 -418 8 -1055 11 -1415 3 -360
7 -936 10 -1280 3 -344 7 -1111 10 -1705 3 -594 8 -1395 10 -1780 3 -385 6
-1205 5 -1822 l0 -1123 130 0 130 0 2 188 c3 226 3 156 -6 837 -4 308 -9 925
-11 1370 -8 1648 -27 8079 -24 8303 l1 102 -139 0 -138 0 1 -458z"/>
<path d="M6730 10758 c-2 -243 2 -2862 5 -2948 2 -63 6 -1069 9 -2235 6 -2143
16 -4641 21 -4990 1 -104 3 -279 4 -387 l1 -198 28 0 29 0 -3 537 c-2 296 -5
747 -9 1003 -3 256 -8 650 -10 875 -7 541 -13 834 -19 844 -3 4 -2 31 3 59 4
28 4 57 0 64 -4 7 -3 18 2 24 9 11 5 196 -5 212 -7 11 -2 142 6 142 3 0 4 8 2
18 -3 9 -1 44 4 78 8 62 1 122 -10 79 -3 -11 -6 -1 -7 23 0 24 3 41 7 38 10
-6 9 35 -1 52 -5 7 -5 22 -1 35 4 12 5 96 3 187 -2 91 -3 208 -2 260 1 62 -3
98 -10 102 -8 5 -8 8 -1 8 7 0 10 54 10 163 0 89 -3 142 -7 117 -5 -39 -6 -35
-7 30 -1 45 2 70 7 61 12 -19 24 3 16 30 -4 11 -8 95 -10 187 -2 92 -6 178
-10 192 -3 14 -2 62 3 107 4 46 4 79 -1 76 -6 -4 -4 755 3 822 1 14 -10 163
-15 205 -3 25 -2 31 5 20 7 -10 10 7 10 57 0 39 -5 75 -10 78 -6 4 -7 11 -4
17 5 8 16 1494 13 1848 0 58 0 133 0 168 1 36 -3 62 -9 62 -5 0 -10 5 -10 11
0 5 5 7 10 4 6 -4 10 8 10 29 0 20 5 36 11 36 6 0 5 7 -3 19 -10 13 -13 48
-11 118 5 197 4 410 -3 429 -3 12 -3 15 3 7 5 -6 9 136 11 330 1 188 4 368 7
400 3 32 3 63 -1 68 -3 6 -6 114 -6 240 l0 229 -29 0 c-27 0 -29 -2 -29 -42z"/>
<path d="M6944 7773 c3 -1666 8 -3455 11 -3978 8 -1539 16 -2748 20 -2925 2
-91 4 -324 5 -517 l0 -353 63 0 62 0 -3 81 c-2 52 1 85 8 95 9 10 9 18 1 27
-7 9 -10 64 -9 151 0 75 -2 139 -5 142 -3 3 -1 18 3 34 5 17 4 30 -1 32 -6 2
-9 37 -9 78 4 184 -1 734 -6 742 -3 5 -3 21 0 34 5 19 4 24 -6 18 -10 -6 -10
-4 0 8 10 13 11 25 3 54 -8 28 -7 40 1 45 9 6 9 11 0 21 -6 8 -7 19 -3 26 8
13 6 120 -4 204 -3 25 -1 48 4 50 5 2 6 52 1 123 -4 66 -8 255 -9 420 -1 165
-2 309 -2 320 -1 11 -1 106 0 210 1 148 -4 513 -10 810 0 11 0 110 0 220 0
110 0 218 -1 240 0 22 0 234 1 470 0 237 -2 813 -4 1280 -2 468 -4 870 -3 895
1 25 1 81 0 125 0 44 0 256 0 470 0 215 -2 424 -4 465 -1 41 -2 215 0 385 2
171 2 382 1 470 -2 88 -3 194 -2 235 2 62 2 278 1 645 0 33 3 139 7 235 4 96
6 220 4 275 -2 55 -3 119 -4 143 0 23 -3 42 -6 42 -3 0 0 24 8 53 10 39 11 59
2 79 -6 15 -7 33 -3 40 5 7 9 79 9 160 l0 148 -64 0 -63 0 6 -3027z"/>
<path d="M7121 10728 c5 -64 4 -171 -2 -218 -1 -8 -1 -28 0 -45 1 -23 3 -27
11 -15 15 24 12 -70 -4 -133 -14 -53 -10 -134 9 -194 4 -13 3 -23 -3 -23 -6 0
-8 -59 -5 -162 8 -259 8 -339 1 -398 -4 -32 -3 -47 2 -35 5 11 8 -204 9 -485
0 -278 2 -671 5 -875 8 -514 17 -2048 21 -3730 3 -1033 1 -1423 -8 -1433 -7
-10 -8 -15 0 -20 7 -5 11 -155 11 -482 0 -261 0 -842 1 -1290 1 -448 1 -830 1
-848 0 -20 -4 -31 -10 -27 -6 4 -10 -10 -10 -34 0 -28 4 -40 13 -39 8 2 13
-12 15 -40 2 -25 -1 -42 -7 -42 -6 0 -11 -7 -11 -16 0 -8 5 -12 10 -9 6 4 10
-6 10 -24 0 -16 -4 -33 -10 -36 -6 -4 -7 1 -4 12 5 15 4 16 -5 3 -13 -18 -14
-50 -2 -50 5 0 13 -9 16 -20 6 -18 15 -20 92 -20 l85 0 -6 33 c-11 61 -9 167
5 183 10 13 10 17 -2 26 -11 7 -11 11 -1 15 6 2 12 9 12 14 0 6 -4 7 -10 4 -6
-3 -11 6 -12 22 -5 79 -7 190 -6 298 1 66 1 202 0 302 0 106 3 185 9 188 5 4
6 11 3 17 -8 12 -18 511 -11 558 1 8 -2 49 -6 92 -7 58 -5 83 5 105 8 15 13
36 11 46 -3 9 0 17 6 17 8 0 7 7 -1 20 -10 16 -10 24 0 40 7 12 8 20 2 20 -12
0 -13 47 -1 54 10 6 30 -159 30 -244 0 -30 1 -68 2 -85 2 -29 -8 -279 -15
-398 -2 -32 -1 -68 2 -80 5 -20 6 -20 13 -1 4 10 7 -51 7 -136 -1 -101 -4
-136 -8 -100 -5 43 -7 24 -11 -85 -4 -145 -1 -190 12 -145 4 14 7 -58 6 -160
l-1 -185 -6 145 c-5 121 -6 91 -10 -180 -3 -179 -4 -342 -2 -362 l3 -38 315 0
c244 0 314 3 315 13 1 6 0 24 -1 39 -1 15 4 36 10 47 8 17 7 24 -9 37 -17 15
-19 50 -2 40 4 -3 3 32 0 77 -4 45 -4 114 -1 152 6 55 6 351 1 460 0 11 0 53
1 94 2 45 -2 76 -9 80 -7 5 -11 88 -10 266 0 336 -9 1217 -17 1645 -3 184 -8
468 -10 630 -2 162 -6 354 -8 425 -5 126 -6 244 -5 295 1 14 0 153 -1 310 -2
283 0 344 12 356 4 3 0 25 -8 47 -15 43 -17 202 -3 222 8 11 4 492 -7 795 -4
113 -7 219 -6 235 2 84 2 141 -1 349 -1 125 -1 229 1 231 3 2 3 87 2 187 -1
101 -4 304 -6 453 -2 153 0 271 5 275 6 3 5 26 0 55 -6 28 -7 71 -4 98 3 26 2
47 -4 47 -5 0 -7 41 -5 98 6 163 5 412 -2 424 -4 7 -3 8 4 4 8 -5 12 4 12 28
0 19 -4 38 -10 41 -6 4 -5 14 3 27 9 16 9 22 0 25 -9 3 -13 25 -13 61 0 41 3
53 10 42 11 -16 6 111 -6 161 -3 15 -1 30 5 33 6 4 11 19 11 34 0 22 -2 24
-11 12 -8 -11 -9 -9 -3 10 4 14 6 77 6 140 -1 63 -2 131 -2 150 0 19 -1 71 -2
115 0 44 -1 91 -1 105 1 232 2 590 2 605 2 45 2 421 1 568 l-1 157 -291 0
-290 0 6 -80 c3 -45 2 -80 -3 -80 -5 0 -7 -9 -4 -20 4 -13 0 -20 -10 -20 -18
0 -28 72 -15 108 4 13 8 39 8 58 l0 34 -103 0 -103 0 7 -72z m189 22 c0 -5 -4
-10 -10 -10 -5 0 -10 5 -10 10 0 6 5 10 10 10 6 0 10 -4 10 -10z m30 -181 c0
-5 -10 -9 -21 -9 -18 0 -19 2 -9 15 12 15 30 12 30 -6z m1 -61 c7 -161 12
-598 7 -604 -6 -6 1 -149 8 -167 4 -10 1 -43 -5 -73 -7 -29 -9 -59 -5 -66 4
-6 10 -28 14 -49 5 -28 4 -36 -6 -32 -9 3 -11 -2 -7 -16 3 -12 10 -21 15 -21
5 0 7 -26 3 -62 -4 -35 -6 -94 -5 -133 1 -38 2 -74 1 -80 -5 -91 -4 -358 1
-361 11 -7 10 -44 -1 -44 -5 0 -11 -38 -13 -85 -2 -47 0 -85 4 -85 6 0 3 -118
-7 -247 -3 -42 -1 -63 7 -63 7 0 9 -18 6 -51 -3 -28 -1 -69 4 -91 5 -24 5 -67
0 -107 -5 -36 -6 -68 -2 -71 4 -3 6 -122 5 -265 -2 -212 -3 -435 -2 -835 0
-170 -11 -372 -22 -383 -21 -21 -30 12 -29 103 2 86 -10 346 -19 410 -2 19 -4
42 -3 50 7 97 3 344 -5 347 -12 4 -7 83 6 99 12 15 10 202 -2 210 -6 3 -7 13
-5 22 12 35 9 234 -3 241 -8 5 -9 26 -2 77 5 38 7 116 5 174 -7 219 -6 302 3
309 5 3 10 71 11 151 2 80 5 169 8 198 4 28 2 52 -2 52 -8 0 -10 56 -3 70 1 3
4 111 5 240 2 129 4 242 5 250 1 8 -2 42 -6 75 -4 33 -7 80 -6 105 0 25 2 143
3 262 2 120 6 218 11 218 14 0 7 38 -9 44 -8 3 -12 11 -9 16 4 6 7 66 6 133 0
67 3 132 6 145 8 34 33 27 34 -10z m26 -710 c-3 -8 -6 -5 -6 6 -1 11 2 17 5
13 3 -3 4 -12 1 -19z m-3 -3472 c4 -109 3 -162 -5 -180 -9 -20 -9 -29 0 -40 9
-10 10 -20 3 -32 -6 -10 -7 -27 -2 -38 4 -12 7 -90 6 -173 -1 -84 2 -153 6
-153 5 0 8 -126 8 -281 0 -155 -4 -278 -9 -275 -4 3 -4 -16 1 -42 5 -27 7
-203 3 -417 -10 -622 -16 -908 -17 -950 -1 -22 2 -65 6 -95 5 -38 4 -51 -3
-41 -6 10 -8 -19 -4 -92 4 -75 2 -107 -6 -107 -6 0 -11 -7 -11 -15 0 -8 5 -15
10 -15 6 0 10 -22 10 -50 0 -42 -3 -50 -18 -50 -14 0 -19 8 -20 33 -8 161 -16
211 -35 204 -7 -3 -12 6 -13 22 -1 14 1 20 3 14 3 -7 9 -13 14 -13 14 0 11 58
-3 64 -10 5 -10 7 0 12 15 7 16 64 0 64 -9 0 -9 3 0 12 15 15 17 228 2 228 -5
0 -8 67 -6 173 1 97 -2 182 -7 194 -7 16 -6 27 3 38 7 8 10 25 7 37 -3 13 -2
43 3 68 4 25 4 47 0 50 -5 3 -7 62 -6 132 2 73 -1 129 -7 131 -10 3 -16 781
-6 862 4 32 7 39 8 20 1 -28 2 -29 13 -10 8 12 14 77 16 165 6 300 7 469 2
583 l-5 117 26 0 26 0 7 -154z m573 -1018 c-3 -7 -5 -2 -5 12 0 14 2 19 5 13
2 -7 2 -19 0 -25z m-387 -1094 c0 -19 -4 -33 -8 -30 -8 5 -4 66 4 66 2 0 4
-16 4 -36z m-191 -1035 l4 -34 7 30 c6 22 8 10 8 -40 0 -48 -2 -64 -8 -50 -7
15 -9 9 -9 -25 -1 -33 2 -41 9 -30 7 11 10 3 10 -30 0 -33 -3 -41 -10 -30 -7
10 -10 -6 -10 -55 0 -44 4 -65 9 -56 14 21 22 -36 12 -84 l-9 -40 -1 34 c-1
29 -3 32 -16 21 -13 -11 -15 -8 -15 14 0 15 -6 29 -13 32 -18 7 -23 128 -12
284 3 41 8 81 10 88 9 24 30 6 34 -29z m-4 -560 c1 -91 -2 -119 -12 -119 -13
0 -16 37 -15 180 0 82 1 85 15 71 8 -8 12 -50 12 -132z m-45 45 c0 -8 -5 -12
-10 -9 -6 4 -8 11 -5 16 9 14 15 11 15 -7z m69 -186 c-2 -67 -3 -75 -9 -43
l-7 40 -3 -40 c-1 -22 -1 -44 1 -50 2 -5 3 -27 3 -47 0 -20 4 -34 8 -32 4 3 7
-59 7 -138 -1 -79 -4 -131 -6 -115 -2 15 -8 27 -12 27 -17 0 -31 54 -31 116 0
38 -6 77 -15 94 -11 21 -12 29 -3 32 8 3 14 33 16 81 4 67 7 77 23 77 15 0 19
7 19 40 0 22 2 40 5 40 3 0 4 -37 4 -82z m8 -1650 c-2 -13 -4 -5 -4 17 -1 22
1 32 4 23 2 -10 2 -28 0 -40z m0 -490 c-2 -13 -4 -3 -4 22 0 25 2 35 4 23 2
-13 2 -33 0 -45z"/>
<path d="M7362 5310 c0 -14 2 -19 5 -12 2 6 2 18 0 25 -3 6 -5 1 -5 -13z"/>
<path d="M7957 10774 c-6 -33 3 -103 14 -110 15 -9 10 -41 -6 -48 -8 -3 -15
-17 -15 -31 0 -16 6 -25 15 -25 12 0 15 -17 15 -89 0 -50 -4 -92 -10 -96 -5
-3 -6 -15 -1 -26 4 -12 4 -43 1 -70 -4 -29 -2 -53 4 -59 7 -7 6 -17 -3 -32
-10 -16 -10 -22 -1 -28 8 -5 9 -13 4 -21 -8 -13 -8 -138 1 -207 2 -18 0 -44
-5 -58 -7 -18 -6 -33 5 -54 15 -30 17 -140 2 -140 -5 0 -6 -18 -2 -40 4 -22 6
-115 6 -207 0 -92 0 -247 -1 -343 0 -97 4 -190 9 -208 6 -18 7 -63 3 -100 -8
-72 -7 -417 2 -597 8 -177 10 -536 3 -590 -4 -31 -3 -39 2 -20 4 17 7 -133 6
-332 0 -200 3 -363 7 -363 4 0 8 -18 8 -40 0 -22 -4 -40 -10 -40 -5 0 -10 -7
-10 -15 0 -8 4 -15 9 -15 5 0 9 -183 8 -427 0 -236 -3 -401 -7 -368 l-7 60 -1
-50 c-1 -27 3 -68 7 -90 5 -22 13 -346 16 -720 4 -374 9 -738 11 -810 3 -106
4 -578 3 -1925 0 -411 5 -699 11 -695 5 3 8 -48 7 -112 0 -81 -3 -104 -7 -73
-6 36 -7 29 -7 -37 0 -45 4 -80 9 -77 4 3 8 -46 8 -110 0 -82 -4 -116 -12
-119 -10 -4 -10 -7 -1 -14 11 -8 14 -46 12 -143 0 -14 0 -158 0 -320 1 -162 0
-311 -1 -330 0 -19 0 -66 1 -105 1 -38 1 -82 -2 -98 -2 -15 -1 -29 3 -32 4 -2
5 -43 3 -90 l-3 -85 176 0 176 0 -5 27 c-3 15 -1 37 3 49 6 16 5 26 -6 35 -8
7 -11 16 -6 23 9 12 9 18 -3 60 -6 23 -4 32 11 43 13 9 15 16 8 21 -8 5 -12
51 -12 134 0 69 -3 136 -7 147 -4 13 -2 21 6 21 9 0 10 20 5 77 -4 43 -7 89
-7 103 0 14 2 105 3 203 2 97 0 177 -4 177 -5 0 -8 19 -8 43 0 25 4 37 8 29 5
-7 6 16 4 50 -2 35 -9 69 -15 76 -8 10 -7 16 2 21 10 7 12 37 7 132 -3 68 -5
131 -5 139 3 76 -3 468 -7 514 -5 42 -3 57 5 52 7 -5 11 5 11 28 0 19 -4 38
-10 41 -5 3 -9 71 -8 165 1 87 6 156 10 154 4 -3 8 -1 8 5 0 5 -4 13 -10 16
-5 3 -10 11 -10 16 0 6 5 7 10 4 6 -3 10 -1 10 4 0 6 -5 11 -10 11 -6 0 -8 15
-4 40 4 24 3 40 -4 40 -11 0 -9 201 3 219 4 7 1 34 -6 62 -9 34 -10 53 -3 57
13 9 18 98 6 106 -5 3 -10 133 -10 295 0 160 -4 295 -7 302 -4 6 -9 210 -10
453 -1 242 -6 653 -10 911 -4 259 -8 628 -10 820 -2 193 -4 350 -4 350 -1 0
-3 82 -4 183 -2 150 0 182 11 182 9 0 12 6 8 16 -3 9 -9 61 -12 117 -3 56 -8
105 -10 108 -2 4 -4 56 -3 115 0 60 -1 255 -2 434 -2 179 -3 348 -2 375 1 108
1 296 0 403 -1 63 0 115 3 117 3 2 4 47 3 102 -3 117 -7 527 -6 598 4 234 -6
1194 -12 1208 -4 9 -4 32 0 50 12 56 14 191 2 199 -8 4 -7 18 1 45 10 34 15
126 13 236 l-1 37 -179 0 -179 0 -5 -26z m60 -3866 c-3 -7 -5 -2 -5 12 0 14 2
19 5 13 2 -7 2 -19 0 -25z m360 -3820 c-3 -7 -5 -2 -5 12 0 14 2 19 5 13 2 -7
2 -19 0 -25z m10 -890 c-3 -7 -5 -2 -5 12 0 14 2 19 5 13 2 -7 2 -19 0 -25z
m-330 -420 c-2 -13 -4 -3 -4 22 0 25 2 35 4 23 2 -13 2 -33 0 -45z"/>
<path d="M8394 10753 c9 -73 11 -405 2 -433 -4 -14 -4 -20 1 -13 4 6 7 -120 6
-280 -3 -436 -3 -504 1 -842 2 -171 6 -320 10 -332 4 -12 2 -24 -4 -28 -6 -3
-7 -11 -3 -18 3 -6 8 -189 9 -406 1 -218 5 -562 8 -766 7 -443 17 -1169 21
-1535 2 -146 6 -481 9 -745 9 -736 17 -1484 21 -1975 2 -245 6 -659 9 -920 3
-261 8 -875 11 -1365 3 -490 8 -936 11 -992 l6 -103 74 0 c41 0 74 3 74 6 0 3
-5 25 -11 48 -7 30 -8 55 0 80 8 30 7 38 -5 43 -11 4 -13 18 -8 62 3 31 6 63
6 71 -1 8 -3 89 -7 180 -7 197 -7 185 -5 285 3 91 -8 617 -16 835 -3 80 -5
152 -4 160 5 94 3 273 -2 277 -5 2 -8 11 -8 19 0 8 4 13 9 10 5 -4 7 3 4 15
-3 11 0 31 7 44 10 19 10 27 1 39 -7 8 -12 23 -11 33 1 10 1 20 0 23 -2 3 -4
64 -7 135 -6 196 -7 209 -18 217 -6 5 -5 12 3 20 16 16 16 42 0 32 -10 -6 -10
-4 0 8 13 17 12 265 -3 713 -9 279 -17 706 -13 765 7 126 -3 1149 -16 1583 -7
216 -18 1289 -15 1402 1 39 2 108 3 155 1 47 6 88 11 92 7 5 7 8 0 8 -7 0 -9
130 -9 373 1 204 -2 453 -6 552 -4 99 -6 184 -3 189 3 4 4 54 3 110 -2 55 -2
108 -1 116 0 8 3 209 5 445 3 237 6 492 8 567 2 76 -1 138 -5 138 -5 0 -5 21
-1 48 4 26 6 75 5 110 -1 41 4 75 14 95 13 27 14 33 2 42 -11 8 -14 39 -13
132 0 67 4 116 8 110 5 -7 8 0 8 16 0 16 -4 26 -10 22 -6 -3 -10 5 -10 19 0
14 5 28 10 31 6 3 10 12 10 18 0 9 -3 8 -8 -1 -5 -8 -8 2 -8 25 1 21 4 40 7
43 11 9 15 178 4 177 -5 -1 -11 13 -13 31 l-3 32 -81 0 -80 0 6 -47z"/>
<path d="M8579 10784 c-10 -12 -10 -17 0 -23 9 -6 12 -57 13 -192 1 -454 3
-569 11 -569 4 0 7 5 7 12 0 6 3 8 6 5 4 -4 2 -12 -4 -20 -11 -13 -19 -248 -9
-264 3 -5 6 -59 5 -119 -4 -669 -3 -1090 3 -1094 6 -4 15 -774 24 -2050 1
-140 2 -360 3 -488 2 -128 0 -237 -3 -242 -3 -5 -1 -11 5 -15 5 -3 9 -20 9
-38 -1 -28 -2 -508 -1 -547 5 -246 13 -780 17 -1095 2 -225 6 -552 9 -725 3
-173 8 -551 12 -840 3 -289 7 -595 9 -680 1 -85 -2 -165 -6 -177 -5 -13 -5
-23 0 -23 8 0 12 -329 9 -800 0 -107 0 -211 0 -230 2 -122 5 -151 14 -156 7
-4 7 -9 0 -13 -9 -5 -18 -162 -11 -196 1 -5 0 -54 -1 -108 l-2 -97 86 0 c75 0
85 2 91 20 3 11 -1 30 -10 44 -10 14 -12 27 -6 30 5 3 6 18 2 33 -4 15 -4 46
-1 70 4 24 4 43 0 43 -4 0 -6 17 -4 37 1 21 -2 65 -8 98 -5 32 -10 101 -11
151 -1 51 -5 95 -8 98 -3 3 -2 29 1 58 4 29 6 94 4 143 -3 97 -6 307 -4 340 3
45 -9 405 -14 413 -8 13 -21 432 -17 567 1 39 -1 137 -3 218 -3 81 -2 146 2
143 12 -7 3 106 -10 121 -6 7 -6 13 -2 13 6 0 8 110 6 258 -5 323 -5 320 3
360 4 19 3 37 -3 45 -7 8 -11 65 -12 143 0 71 -3 179 -6 239 -6 103 -10 577
-6 675 1 25 -1 110 -3 190 -12 366 -12 436 -3 447 5 6 5 14 1 16 -10 6 -9 319
1 335 3 6 1 12 -5 14 -8 3 -9 17 -1 51 5 26 6 47 1 47 -14 0 -11 28 4 33 8 4
8 8 2 14 -5 4 -11 40 -12 78 -1 39 -4 115 -7 170 -4 76 -2 104 9 121 8 12 11
25 7 29 -4 3 -8 55 -8 115 -1 60 -4 113 -7 117 -3 4 -1 37 4 73 5 35 7 71 3
80 -10 26 -4 482 7 503 6 10 12 87 14 169 2 104 7 153 15 158 15 9 4 30 -16
30 -16 0 -19 16 -4 25 15 9 12 25 -5 25 -12 0 -15 17 -17 83 -4 138 0 182 22
259 11 37 12 55 3 80 -17 46 -27 138 -17 138 5 0 8 26 7 58 -9 200 -9 416 0
470 6 40 6 70 0 84 -6 14 -6 35 1 60 7 27 7 41 0 46 -7 5 -10 114 -9 327 1
176 3 325 4 330 5 20 3 173 -2 182 -9 15 8 421 18 432 3 2 13 -2 21 -11 14
-14 16 -61 16 -384 0 -230 5 -407 13 -469 10 -82 10 -105 -1 -132 -12 -27 -12
-34 0 -46 11 -11 14 -53 12 -198 0 -106 -5 -187 -11 -191 -6 -4 -5 -19 3 -40
7 -21 11 -91 11 -190 -1 -86 2 -162 6 -168 4 -6 3 -44 -1 -83 -4 -40 -10 -63
-12 -53 -3 14 -6 16 -12 6 -10 -16 -1 -42 11 -34 5 3 9 -58 9 -143 0 -81 1
-224 2 -318 2 -289 0 -322 -16 -300 -12 17 -14 16 -18 -12 -3 -25 -1 -29 14
-25 15 4 18 -2 17 -39 -1 -37 -2 -40 -9 -19 -6 19 -8 9 -9 -37 -1 -51 2 -63
15 -63 13 0 15 -13 12 -77 -2 -43 1 -429 5 -858 7 -743 10 -998 22 -1835 3
-201 8 -621 10 -935 3 -313 8 -662 10 -775 9 -452 13 -1363 6 -1325 -6 26 -6
11 -3 -40 3 -44 5 -90 4 -102 -1 -13 -2 -31 -3 -40 -1 -10 4 -42 10 -72 12
-59 13 -321 2 -361 -4 -14 -4 -36 1 -49 4 -13 9 -92 9 -177 l0 -154 846 0 846
0 -7 483 c-4 265 -9 534 -11 597 -2 63 -7 286 -10 495 -10 696 -25 1616 -30
1910 -31 1616 -31 4071 0 6658 l8 657 -879 0 -879 0 2 -87 c6 -180 4 -320 -2
-356 -6 -30 -4 -37 9 -37 13 0 16 -13 16 -73 0 -40 -5 -78 -11 -84 -7 -7 -9
-35 -5 -79 10 -113 10 -145 0 -152 -10 -8 -13 -28 -15 -114 -1 -32 -6 -58 -10
-58 -4 0 -13 26 -20 58 -9 44 -9 70 0 116 8 36 9 61 3 65 -12 7 -21 81 -10 81
4 0 5 87 2 193 -2 105 -6 267 -7 359 l-2 168 -81 0 c-62 0 -85 -4 -95 -16z
m191 -6394 c0 -5 -2 -10 -4 -10 -3 0 -8 5 -11 10 -3 6 -1 10 4 10 6 0 11 -4
11 -10z m1548 -779 c3 -8 -1 -12 -9 -9 -7 2 -15 10 -17 17 -3 8 1 12 9 9 7 -2
15 -10 17 -17z m2 -1476 c0 -8 -4 -15 -10 -15 -5 0 -10 7 -10 15 0 8 5 15 10
15 6 0 10 -7 10 -15z m7 -332 c-3 -10 -5 -4 -5 12 0 17 2 24 5 18 2 -7 2 -21
0 -30z m0 -690 c-3 -10 -5 -2 -5 17 0 19 2 27 5 18 2 -10 2 -26 0 -35z"/>
<path d="M5893 10440 c0 -25 2 -35 4 -22 2 12 2 32 0 45 -2 12 -4 2 -4 -23z"/>
<path d="M2573 10280 c0 -25 2 -35 4 -22 2 12 2 32 0 45 -2 12 -4 2 -4 -23z"/>
<path d="M5893 9880 c0 -25 2 -35 4 -22 2 12 2 32 0 45 -2 12 -4 2 -4 -23z"/>
<path d="M5894 9600 c0 -91 2 -128 3 -82 2 45 2 119 0 165 -1 45 -3 8 -3 -83z"/>
<path d="M8321 9724 c0 -11 3 -14 6 -6 3 7 2 16 -1 19 -3 4 -6 -2 -5 -13z"/>
<path d="M1922 9700 c0 -14 2 -19 5 -12 2 6 2 18 0 25 -3 6 -5 1 -5 -13z"/>
<path d="M5897 9193 c1 -93 7 -1126 14 -2298 6 -1172 15 -2429 19 -2795 6
-465 7 -204 4 865 -3 842 -9 1935 -14 2430 -5 495 -9 1140 -10 1433 0 292 -3
532 -7 532 -5 0 -7 -75 -6 -167z"/>
<path d="M2586 9105 c4 -8 8 -15 10 -15 2 0 4 7 4 15 0 8 -4 15 -10 15 -5 0
-7 -7 -4 -15z"/>
<path d="M8402 8770 c0 -19 2 -27 5 -17 2 9 2 25 0 35 -3 9 -5 1 -5 -18z"/>
<path d="M8601 8464 c0 -11 3 -14 6 -6 3 7 2 16 -1 19 -3 4 -6 -2 -5 -13z"/>
<path d="M8823 7560 c0 -25 2 -35 4 -22 2 12 2 32 0 45 -2 12 -4 2 -4 -23z"/>
<path d="M8822 7140 c0 -14 2 -19 5 -12 2 6 2 18 0 25 -3 6 -5 1 -5 -13z"/>
<path d="M6781 6224 c0 -11 3 -14 6 -6 3 7 2 16 -1 19 -3 4 -6 -2 -5 -13z"/>
<path d="M8001 6174 c0 -11 3 -14 6 -6 3 7 2 16 -1 19 -3 4 -6 -2 -5 -13z"/>
<path d="M6782 5900 c0 -14 2 -19 5 -12 2 6 2 18 0 25 -3 6 -5 1 -5 -13z"/>
<path d="M5942 3390 c0 -19 2 -27 5 -17 2 9 2 25 0 35 -3 9 -5 1 -5 -18z"/>
<path d="M3833 3320 c0 -25 2 -35 4 -22 2 12 2 32 0 45 -2 12 -4 2 -4 -23z"/>
<path d="M5937 3283 c-2 -5 -1 -145 3 -313 l6 -305 2 313 c1 171 0 312 -2 312
-3 0 -7 -3 -9 -7z"/>
<path d="M5942 2500 c0 -14 2 -19 5 -12 2 6 2 18 0 25 -3 6 -5 1 -5 -13z"/>
<path d="M7362 1880 c0 -19 2 -27 5 -17 2 9 2 25 0 35 -3 9 -5 1 -5 -18z"/>
<path d="M3353 1720 c0 -25 2 -35 4 -22 2 12 2 32 0 45 -2 12 -4 2 -4 -23z"/>
<path d="M8891 1534 c0 -11 3 -14 6 -6 3 7 2 16 -1 19 -3 4 -6 -2 -5 -13z"/>
<path d="M7373 1130 c0 -36 2 -50 4 -32 2 17 2 47 0 65 -2 17 -4 3 -4 -33z"/>
<path d="M5942 840 c0 -114 1 -119 9 -62 6 36 6 88 0 125 -8 56 -9 51 -9 -63z"/>
<path d="M7151 674 c0 -11 3 -14 6 -6 3 7 2 16 -1 19 -3 4 -6 -2 -5 -13z"/>
<path d="M5947 633 c-4 -21 -2 -42 3 -47 7 -7 10 7 10 37 0 57 -5 60 -13 10z"/>
<path d="M5940 494 c0 -36 4 -63 8 -60 12 7 12 126 1 126 -5 0 -9 -30 -9 -66z"/>
<path d="M5943 205 c2 -107 6 -197 10 -201 4 -4 7 83 7 194 0 126 -4 202 -10
202 -6 0 -9 -72 -7 -195z"/>
</g>
</svg>
